<svg width="129" height="184" viewBox="0 0 129 184" fill="none" xmlns="http://www.w3.org/2000/svg">
<path fill-rule="evenodd" clip-rule="evenodd" d="M15.0287 0.0246582C6.86371 0.0246582 0.24469 6.64368 0.24469 14.8087V168.88C0.24469 177.045 6.86371 183.664 15.0287 183.664H113.581C121.746 183.664 128.365 177.045 128.365 168.88V14.8087C128.365 6.64368 121.746 0.0246582 113.581 0.0246582H15.0287ZM16.1781 8.56616C12.0956 8.56616 8.78607 11.8757 8.78607 15.9581V167.731C8.78607 171.814 12.0956 175.123 16.1781 175.123H112.432C116.515 175.123 119.824 171.814 119.824 167.731V15.9582C119.824 11.8757 116.515 8.56616 112.432 8.56616H16.1781Z" fill="white"/>
</svg>
