<svg width="94" height="201" viewBox="0 0 94 201" fill="none" xmlns="http://www.w3.org/2000/svg">
<path fill-rule="evenodd" clip-rule="evenodd" d="M0 17.2215C0 7.71034 7.71034 0 17.2215 0H76.1373C85.6485 0 93.3589 7.71035 93.3589 17.2215V183.092C93.3589 192.603 85.6485 200.314 76.1373 200.314H17.2215C7.71034 200.314 0 192.603 0 183.092V17.2215ZM4.53198 18.128C4.53198 10.6191 10.5543 4.53202 17.9833 4.53202H75.3756C82.8045 4.53202 88.8269 10.6191 88.8269 18.128V182.186C88.8269 189.695 82.8045 195.782 75.3756 195.782H17.9833C10.5543 195.782 4.53198 189.695 4.53198 182.186V18.128ZM38.5218 6.34474C36.2692 6.34474 34.443 8.17087 34.443 10.4235C34.443 12.6762 36.2692 14.5023 38.5218 14.5023H56.6498C58.9024 14.5023 60.7285 12.6762 60.7285 10.4235C60.7285 8.17087 58.9024 6.34474 56.6498 6.34474H38.5218Z" fill="white"/>
</svg>
