<svg width="226" height="133" viewBox="0 0 226 133" fill="none" xmlns="http://www.w3.org/2000/svg">
<path d="M0.364014 118.75H225.685V123.516C225.685 127.106 222.774 130.016 219.185 130.016H6.86402C3.27417 130.016 0.364014 127.106 0.364014 123.516V118.75Z" fill="white"/>
<rect x="16.8297" y="127.416" width="15.5991" height="5.19971" rx="2.59985" fill="white"/>
<rect x="193.62" y="127.416" width="15.5991" height="5.19971" rx="2.59985" fill="white"/>
<path fill-rule="evenodd" clip-rule="evenodd" d="M33.0294 0.0234375C26.9543 0.0234375 22.0294 4.9483 22.0294 11.0234V119.617H204.019V11.0234C204.019 4.94831 199.094 0.0234375 193.019 0.0234375H33.0294ZM100.892 6.08986V6.0897H33.2955C30.4238 6.0897 28.0958 8.41768 28.0958 11.2894V119.617H197.953V11.2894C197.953 8.41769 195.625 6.0897 192.753 6.0897H125.157V6.08986C125.157 8.48296 123.217 10.423 120.824 10.423H105.225C102.832 10.423 100.892 8.48296 100.892 6.08986Z" fill="white"/>
</svg>
